<svg xmlns="http://www.w3.org/2000/svg" width="320" height="320" viewBox="0 0 320 320">
  <rect width="100%" height="100%" fill="#ffffff"/>
  <rect x="16" y="16" width="288" height="288" fill="#ffffff" stroke="#111" stroke-width="8"/>
  <!-- 3 finder patterns -->
  <rect x="32" y="32" width="64" height="64" fill="#111"/>
  <rect x="40" y="40" width="48" height="48" fill="#fff"/>
  <rect x="48" y="48" width="32" height="32" fill="#111"/>

  <rect x="224" y="32" width="64" height="64" fill="#111"/>
  <rect x="232" y="40" width="48" height="48" fill="#fff"/>
  <rect x="240" y="48" width="32" height="32" fill="#111"/>

  <rect x="32" y="224" width="64" height="64" fill="#111"/>
  <rect x="40" y="232" width="48" height="48" fill="#fff"/>
  <rect x="48" y="240" width="32" height="32" fill="#111"/>

  <!-- random modules to look like a QR -->
  <g fill="#111">
    <rect x="112" y="80" width="16" height="16"/>
    <rect x="144" y="80" width="16" height="16"/>
    <rect x="176" y="80" width="16" height="16"/>

    <rect x="112" y="112" width="16" height="16"/>
    <rect x="128" y="112" width="16" height="16"/>
    <rect x="160" y="112" width="16" height="16"/>
    <rect x="192" y="112" width="16" height="16"/>

    <rect x="96"  y="144" width="16" height="16"/>
    <rect x="128" y="144" width="16" height="16"/>
    <rect x="144" y="144" width="16" height="16"/>
    <rect x="192" y="144" width="16" height="16"/>

    <rect x="96"  y="176" width="16" height="16"/>
    <rect x="128" y="176" width="16" height="16"/>
    <rect x="160" y="176" width="16" height="16"/>
    <rect x="176" y="176" width="16" height="16"/>
    <rect x="208" y="176" width="16" height="16"/>

    <rect x="128" y="208" width="16" height="16"/>
    <rect x="160" y="208" width="16" height="16"/>
    <rect x="192" y="208" width="16" height="16"/>
  </g>

  <text x="160" y="304" text-anchor="middle" font-size="14" font-family="Arial, sans-serif" fill="#666">
    Mock PromptPay QR
  </text>
</svg>
